<mxfile host="65bd71144e" modified="2020-12-27T01:55:43.255Z" agent="5.0 (Windows NT 10.0; Win64; x64) AppleWebKit/537.36 (KHTML, like Gecko) Code/1.52.1 Chrome/83.0.4103.122 Electron/9.3.5 Safari/537.36" version="13.10.0" etag="5YsEPAX142IT5CAK9cDB" type="embed" pages="2">
    <diagram id="ZlEEC4OKQgstSQFalMsB" name="NEW">
        <mxGraphModel dx="1136" dy="790" grid="1" gridSize="10" guides="1" tooltips="1" connect="1" arrows="1" fold="1" page="1" pageScale="1" pageWidth="600" pageHeight="400" math="0" shadow="0">
            <root>
                <mxCell id="0"/>
                <mxCell id="1" parent="0"/>
            </root>
        </mxGraphModel>
    </diagram>
    <diagram id="DMks-3HJC6k_2L6UsAl1" name="OLD">
        <mxGraphModel dx="1136" dy="790" grid="1" gridSize="10" guides="1" tooltips="1" connect="1" arrows="1" fold="1" page="1" pageScale="1" pageWidth="600" pageHeight="400" math="0" shadow="0">
            <root>
                <mxCell id="guQ0oMT0mgO69smM4O0o-0"/>
                <mxCell id="guQ0oMT0mgO69smM4O0o-1" parent="guQ0oMT0mgO69smM4O0o-0"/>
            </root>
        </mxGraphModel>
    </diagram>
</mxfile>